<?xml version="1.0" encoding="UTF-8" standalone="no"?>
<svg
   xmlns:dc="http://purl.org/dc/elements/1.1/"
   xmlns:cc="http://creativecommons.org/ns#"
   xmlns:rdf="http://www.w3.org/1999/02/22-rdf-syntax-ns#"
   xmlns:svg="http://www.w3.org/2000/svg"
   xmlns="http://www.w3.org/2000/svg"
   xmlns:sodipodi="http://sodipodi.sourceforge.net/DTD/sodipodi-0.dtd"
   xmlns:inkscape="http://www.inkscape.org/namespaces/inkscape"
   version="1.1"
   id="Layer_1"
   x="0px"
   y="0px"
   viewBox="0 0 434 434"
   enable-background="new 0 0 434 434"
   xml:space="preserve"
   sodipodi:docname="logo-icon.svg"
   inkscape:version="1.0.2 (e86c8708, 2021-01-15)"><metadata
   id="metadata1209"><rdf:RDF><cc:Work
       rdf:about=""><dc:format>image/svg+xml</dc:format><dc:type
         rdf:resource="http://purl.org/dc/dcmitype/StillImage" /><dc:title></dc:title></cc:Work></rdf:RDF></metadata><defs
   id="defs1207" /><sodipodi:namedview
   pagecolor="#ffffff"
   bordercolor="#666666"
   borderopacity="1"
   objecttolerance="10"
   gridtolerance="10"
   guidetolerance="10"
   inkscape:pageopacity="0"
   inkscape:pageshadow="2"
   inkscape:window-width="1280"
   inkscape:window-height="698"
   id="namedview1205"
   showgrid="false"
   inkscape:zoom="1.1935484"
   inkscape:cx="228.72973"
   inkscape:cy="201.44359"
   inkscape:window-x="0"
   inkscape:window-y="25"
   inkscape:window-maximized="1"
   inkscape:current-layer="Layer_1"
   inkscape:document-rotation="0" />
<circle
   style="fill:#445500;fill-opacity:1;stroke:none;stroke-width:56.3057;stroke-linecap:round;stroke-linejoin:round;opacity:1"
   id="path3561"
   cx="217"
   cy="217"
   r="214.48648" /><g
   id="g1202"
   style="fill:#ffffff">
	<g
   id="g1200"
   style="fill:#ffffff">
		<path
   fill="#FFFFFF"
   d="M428.2,212.5c-0.1,30.1-4.4,57-14.7,82.8c-8.8,22.2-21.4,42.1-37.1,60.1c-16.7,19.1-36,35.2-58.3,47.4    c-19,10.4-39.2,17.5-60.5,21.4c-9.4,1.7-18.8,3-28.3,3.3c-7.1,0.2-14.2,0.6-21.3,0.3c-22.8-1-45-5.5-66.4-13.4    c-27.5-10.1-51.5-25.7-72.3-46.3c-13.1-13-24.9-27.1-34.2-43.1C22,302.4,13,278.3,8.5,252.5c-2.4-13.8-2.9-27.6-2.5-41.6    c0.7-23.8,4.7-47,13.5-69.3c10.8-27.4,26-52,46.7-73.1c17.7-18.1,38.3-32.1,61.3-42.6c14-6.4,28.5-11.7,43.6-15.1    c7.8-1.8,15.7-3.1,23.6-3.7c8.1-0.6,16.3-1.4,24.4-1.2c56.7,1.4,106.2,20.6,146.7,60.9c27.9,27.7,46.8,60.7,56.5,98.9    C426.4,182,428.4,198.4,428.2,212.5 M419.8,216.1c0.1-11-1.1-24.2-3-34.6c-3.9-21.1-11-41.2-21.1-60.1    c-12.8-24-29.6-44.8-50.8-61.9C321.9,41,296,28.4,267.6,20.8c-14.9-4-30.2-6.3-45.7-6.4c-5.2,0-10.4,0.3-15.6,0.4    c-8.6,0.2-17.1,1.2-25.5,2.6c-16,2.8-31.4,7.7-46.3,14.3C111.2,42,90.3,56,72.4,74.2c-23.5,23.8-39.9,52-49.9,83.9    c-5.9,18.9-9.2,38.2-8.9,58c0.2,11.8,1.4,23.6,3.3,35.3c2.7,16.4,7.2,32.3,13.8,47.5c8.7,20.2,20.7,38.1,35.4,54.5    c17.2,19.2,37.3,34.5,60.4,45.9c28.2,13.9,58.2,20.5,89.5,21c12.1,0.2,24.1-0.7,36-2.8c19-3.4,37.1-9.3,54.4-17.9    c21.4-10.6,40.2-24.8,56.9-41.8c19.4-19.9,34.3-42.7,43.9-68.8C415.8,265.4,419.5,241,419.8,216.1"
   id="path1192"
   style="fill:#ffffff" />
		<path
   fill="#FFFFFF"
   d="M26.6,220.6c0-28.6,4.4-53.5,14.4-77.4c8.3-19.7,19.8-37.2,34-53c15.3-17,32.9-31.2,53.3-41.8    c15.3-8,31.5-13.5,48.4-17.1c14.9-3.2,30-4.7,45.2-4.3c36.3,1,69.6,11.4,100,31.1c28.4,18.5,49.8,43.3,65.2,73.4    c9.1,17.8,15,36.6,18.1,56.3c2.2,14,2.5,28.2,1.6,42.3c-1.2,19.4-5.2,38.3-12.4,56.4c-8,20.1-19.4,38.1-33.5,54.5    c-16.2,18.7-34.9,34.2-57,45.6c-15.9,8.2-32.6,13.7-50.1,17.1c-16.4,3.1-33,4.1-49.7,3.1c-40.3-2.4-76.3-16.3-107.5-42    c-31.2-25.8-52.4-58.3-63.5-97.2C28.5,251.3,26.4,234.7,26.6,220.6 M220,34.1c-1.5,0.1-3,0.1-4.6,0.2c-6,0.4-12,0.7-17.9,1.2    c-4.7,0.4-9.4,0.8-14,1.6c-11.3,1.9-22.2,5.1-32.9,9.2c-7.7,3-15.4,5.8-22.6,9.9C95.5,75.2,70,101,52.6,134.5    c-6.9,13.2-11.8,27.1-15.5,41.4c-2.7,10.5-3.5,21.1-2.4,31.9c1.3,13.5,6.1,25.4,15.1,35.6c11.2,12.7,24.5,22.6,39.8,29.9    c11.5,5.4,23.5,9.1,36,11.3c5.9,1.1,11.8,1.9,17.8,2.4c4.4,0.4,9,0.1,13.4,0c1.2,0,2.4-0.3,3.5-0.7c1-0.3,1.7-1.1,1.8-2.3    c0.1-1.2-0.3-2.3-1.4-2.8c-0.8-0.4-1.6-0.7-2.5-0.9c-1.5-0.2-3-0.5-4.5-0.4c-4.2,0.1-7.7-1.5-11.1-3.9c-2.2-1.6-4.5-3-6.9-4.4    c-8.9-5.1-17.5-10.6-25.5-17.1c-14.4-11.6-26.1-25.4-34-42.2c-10.2-21.8-13.1-44.4-8-68C72,127.5,79.4,112.5,90,99.1    c14.2-17.9,32-31.2,52.6-40.8c26.1-12.2,53.5-17.1,82.3-15.6c10.2,0.5,20.4,1.8,30.4,3.9c26.5,5.8,50.3,17,71,34.7    c22.5,19.2,36.9,43,40.5,72.8c1.1,9.5,1.1,19-0.4,28.4c-2.9,18.2-10.2,34.5-21.1,49.3c-9.2,12.4-20.7,22.5-33.6,30.8    c-6.8,4.4-13.8,8.4-20.6,12.7c-3.2,2-6.5,3.3-10.3,3.2c-2.1-0.1-4.3,0.3-6.4,0.7c-1.4,0.2-2.4,1.1-2.9,2.6    c-0.9,2.9,0.7,5.2,4.1,5.3c5.4,0.1,10.8,0.4,16.1-0.2c7.8-0.9,15.5-2.1,23.2-3.7c22.5-4.9,42.7-14.6,59.9-30.1    c6.9-6.2,13-13,17.4-21.2c7.7-14.5,9.4-30,6.9-46.1c-1.3-8.6-3.7-16.8-6.5-25c-8.5-24.8-21.2-47.2-38.9-66.6    c-13.2-14.5-28.6-26.3-45.1-36.6c-2.5-1.6-5.1-2.9-7.9-4.1c-9.2-4-18.5-7.6-28-10.6C255.4,37.4,237.9,34.2,220,34.1 M248.3,136.5    c1.5-2.4,3.4-4.5,5.9-6.1c3.6-2.3,7.6-3.7,11.9-4.2c2.8-0.3,5.6-0.6,8.1-2c3-1.7,4.1-4.2,3.2-7.5c-0.4-1.5-1-3-1.9-4.4    c-1.2-2-2.6-3.9-4-5.6C263,96.6,252.6,88.8,241,82.6c-11.8-6.3-24.4-10.5-37.8-11.5c-10.5-0.8-20.9,0.1-31.2,2.5    c-18.9,4.4-34.9,13.9-48.6,27.5c-13.1,13-21.3,28.4-23.1,47c-1.1,11.9,0,23.6,3.8,35c8.4,24.9,32.4,45.8,58.5,51.1    c5.8,1.2,11.7,2.1,17.6,1.5c7.4-0.7,11.5-3.6,10.3-12.7c-0.8-5.7-3-10.8-6.6-15.2c-5.5-6.7-12.5-11.2-21-12.9    c-6.4-1.3-10.6-4.8-12.4-11.2c0-0.1-0.1-0.1-0.1-0.2c-3-9.4-1.3-17.9,5.7-25c3.9-3.9,8.8-5.4,14.3-3.8c3.4,1,5.9,3.4,8,6.2    c3.4,4.6,5.4,9.7,6.7,15.2c0.4,1.7,0.7,3.5,1.5,5c1.5,3.3,5.3,3.5,7.2,0.4c0.5-0.8,0.8-1.8,0.9-2.7c0.4-2.8-0.8-5-2.7-6.9    c-3.9-4-5.5-8.9-5.6-14.4c-0.1-6.6,1.7-12.7,6.5-17.4c5.1-5,13.3-5.6,19.2-1.4c3,2.1,5.1,4.9,6.4,8.2c2.7,6.5,2.8,13,0,19.6    c-1.1,2.6-2.3,5.3-3,8.1c-0.8,3.2-0.5,6.4,1.2,9.3c1.6,2.6,3.9,3.8,6.8,3.7c2.8-0.1,4.7-1.8,5.9-4.2c1.7-3.6,1.9-7.2,0.4-10.9    c-0.7-1.6-1.6-3.1-2.3-4.7c-3.5-8.5-3-16.7,2-24.5c2.7-4.1,6.6-6.6,11.5-7C243.4,135.9,245.7,136.3,248.3,136.5 M252.7,239.4    c0,0.4-0.1,0.5-0.1,0.7c3.3,8.2,9.1,13.6,17.9,15.3c2.2,0.4,4.4,0.6,6.6,0.9c3.8,0.4,6.9,1.8,8.8,5.3c0.2,0.4,0.5,0.8,0.8,1.2    c2.2,3.1,4,3.8,7.6,2.5c2.2-0.8,4.4-1.9,6.4-3.2c3-1.9,5.8-4,8.7-6c7.6-5.2,14.6-10.9,21-17.4c19.1-19.6,29.1-43.1,30-70.4    c0.5-15.2-2.9-29.7-9.2-43.4c-8.5-18.5-21.5-33.5-38-45.2c-29.8-21.2-63-31.5-99.7-30.5c-12.2,0.3-24.2,1.7-36.1,4.5    c-18.7,4.4-36.2,11.4-52.3,22c-19.4,12.8-34.3,29.4-43.8,50.7c-8.9,20.1-11.4,41-6.3,62.5c4.8,20.4,15.5,37.5,30.3,52.2    c9.7,9.7,21,17.3,32.9,23.9c0.8,0.4,1.6,0.8,2.4,1.1c2.9,1,4.7,0.5,6.6-1.8c0.6-0.7,1.2-1.5,1.7-2.3c1.9-2.8,4.5-4.1,7.9-4.3    c2.7-0.1,5.5-0.1,8.1-0.7c7-1.5,12.4-5.7,17.3-10.6c1-1,1.9-2.4,1.8-4.2c-0.9,0-1.7,0-2.5,0c-7.8-0.2-15.5-1-23-2.8    c-16-3.8-30.2-11-41.4-23.2c-19.3-21.1-27-45.8-22.6-74.1c3.2-21,13.3-38.2,29.6-51.6c17.8-14.6,38.2-23,61.1-25.2    c14.1-1.4,28-0.3,41.4,4.2c17.3,5.9,32.3,15.5,45.2,28.4c1.6,1.6,3.2,3.3,4.9,5c4.3,4.3,9.3,7.3,15.2,8.8c11.7,3,21.5,9,29.7,17.6    c14.7,15.5,21.8,33.7,18.6,55.2c-2.1,14.1-8.2,26.5-18.3,36.8c-10.4,10.5-23,16.8-37.4,19.6c-9,1.8-17.9,2.1-26.9,0    C256.2,240.5,254.4,239.9,252.7,239.4 M276.5,294.1L276.5,294.1c-1.3,0-2.6,0.2-3.8,0c-1.5-0.3-3-0.6-4.2-1.4    c-4-2.6-5.4-6.7-4.9-11.2c0.7-5.3,5.2-9.3,10.6-9.8c1.5-0.1,3-0.2,4.5-0.4c2.2-0.3,3.1-1.3,3.1-3.5c0-2.1-0.9-3.6-2.9-4.3    c-1.6-0.5-3.4-0.8-5.1-1.1c-2.4-0.3-4.8-0.3-7.1-0.8c-6.1-1.5-11-5-14.9-9.9c-4.8-6.2-7.8-13.2-8.1-21.1    c-0.4-12.9,4.8-23.5,14.4-31.8c7.4-6.5,16.4-9.4,26.1-10.5c1.8-0.2,2.9-0.9,3.9-2.3c2.8-4.2,3.2-8.8,2.4-13.6    c-0.5-2.9-1.6-5.5-3.6-7.7c-2.7-2.8-5.9-3.9-9.8-3.1c-3.9,0.8-6.5,3-8,6.6c-1.2,2.9-1.9,5.9-2.9,8.9c-1,2.8-1.9,5.6-3.5,8.1    c-3.2,5.3-9.4,5.7-13.9,1.4c-3.8-3.6-5-12-0.3-16.3c0.7-0.6,1.2-1.3,1.9-1.9c6.6-6,4.9-17.9-1.1-23c-3.5-2.9-8-3.2-11.7-0.5    c-2.9,2.1-4.6,5-5.5,8.4c-1,4,0,7.8,1.2,11.5c0.8,2.5,1.7,5,2.4,7.5c1.5,5.7,0.9,11.1-2,16.2c-2.6,4.5-6.7,6.2-11.7,5.8    c-4.6-0.3-8-2.6-9.9-6.9c-2.5-5.8-2.8-11.8-0.8-17.8c0.7-2.2,1.7-4.3,2.4-6.5c1.6-4.9,1.3-9.8-1.1-14.4c-3.5-6.8-13.1-7.8-18-1.2    c-4.3,5.9-4.1,14.8,0.7,20.2c0.9,1,1.9,1.9,2.8,3c0.8,1,1.6,2,2.1,3.2c2.3,5.9-1.2,13.7-7.1,16c-3.5,1.4-8.4,0.8-10.5-3.9    c-0.8-1.7-1.3-3.6-1.8-5.4c-0.7-2.9-1.3-5.8-2-8.6c-0.7-2.9-2.1-5.5-4.1-7.8c-5-5.4-12.5-5-16.6,1.1c-3.8,5.7-4.2,11.7-1.5,18    c1,2.3,2.5,3.5,5.1,4c10.4,2,19.6,6.6,26.5,14.8c8.7,10.2,11.7,21.9,7.5,34.9c-3.7,11.6-11.7,19.6-22.5,24.9    c-2.8,1.4-5.9,1.9-9.1,2c-1.6,0-3.2-0.1-4.8,0.2c-1.6,0.2-3.2,0.6-4.6,1.3c-2,0.9-2.1,2.8-1.9,4.8c0.2,1.8,1.5,2.6,3.1,2.9    c1.2,0.2,2.4,0.2,3.6,0.3c5.1,0.4,8.9,3.6,10,8.5c1.4,5.9-1.9,11.2-7.6,12.3c-1,0.2-2.1,0.2-3.1,0.2c-2.4,0.1-4.8,0.2-7.2,0.4    c-2.3,0.3-3.7,1.7-4.2,4c-0.7,3.2,0.7,6.2,3.8,7.7c3.7,1.8,7.4,1.6,11-0.4c1.4-0.8,2.6-1.8,4-2.6c3.1-1.8,6.3-1.8,9.3,0.1    c5.5,3.5,8.1,12.4,2.5,18.4c-1.2,1.3-2.8,2.4-4.2,3.6c-1.5,1.3-3.2,2.4-4.6,3.9c-1,1.1-2,2.4-2.4,3.8c-3,10.6,4.8,18,11.7,18.3    c2.5,0.1,5,0.2,7.4-0.2c5.7-1,10.1-3.9,12.3-9.5c1-2.5,2.2-4.8,3.9-6.8c0.6-0.6,0.9-1.5,1.3-2.3c0.6-1.4,1.2-2.8,1.7-4.2    c1.2-3.1,3.4-5,6.4-6.1c3.6-1.3,7.2-1.3,10.8,0c3.4,1.2,6,3.5,6.9,7.1c1.4,5.2,4.5,9.5,7.2,14c3.9,6.3,9.8,8.9,17.1,8.4    c5-0.4,9.1-2.5,11.6-6.9c3.4-5.9,3.7-12.6-3.1-17.6c-1.8-1.3-3.6-2.7-5.3-4.1c-5.2-4.6-5.9-11.4-1.9-17c1.6-2.2,3.6-3.5,6.3-4    c2.3-0.4,4.4,0.3,6.4,1.4c1.7,0.9,3.3,2.1,5,2.9c3.7,1.7,7.3,1.5,10.7-0.8c2.3-1.5,3.3-4.4,2.5-7c-0.8-2.8-2.6-4.3-5.8-4.5    C279,294.1,277.7,294.1,276.5,294.1 M335.1,177c-0.1-11.8-2.9-21.7-8.2-30.9c-5.9-10.1-14.4-17.4-24.4-23.2    c-2.6-1.5-5.5-2.6-8.3-3.5c-3.8-1.2-7.3-0.3-10.1,2.7c-1.4,1.5-2.8,3.1-4.2,4.6c-2.1,2.3-4.6,3.9-7.8,4.5    c-2.1,0.4-4.2,0.8-6.3,1.4c-2.4,0.6-4.8,1.2-7,2.2c-3.6,1.6-4.5,4.1-3.2,7.9c0.6,1.7,1.4,3.2,2.1,4.8c0.7,1.6,1.5,3.2,1.9,4.9    c1.2,5.5,0.3,10.6-2.6,15.4c-1.3,2.2-2.7,4.3-4.1,6.5c-1.1,1.7-1.4,3.6-1,5.5c0.5,2.8,3.1,3.9,5.4,2.3c0.9-0.6,1.6-1.6,2.1-2.6    c0.7-1.3,1.1-2.8,1.7-4.2c1.1-3,2.2-6,3.5-8.9c1.7-3.9,4.5-7,8.3-9c6.9-3.5,15.8-3,20.7,6.1c4.3,8,4.4,16.1,0.3,24.3    c-2.2,4.4-5.6,7-10.6,7.6c-8.4,0.9-15.8,4.3-22.1,10c-5.4,4.9-8.7,10.9-10,18.1c-0.7,3.9,0.6,6.9,4,9c2.3,1.4,4.7,2.3,7.3,2.8    c5,0.9,10,0.7,15,0.1c13-1.5,24.8-6.1,35.1-14.2C327.1,209.6,334.7,194.5,335.1,177 M217.7,397.1c5.6,0,11.6-2.2,17.2-5.6    c2-1.2,4-2.6,6.1-3.9c2.4-1.5,5.1-2.2,8-2.2c1.9,0,3.8,0.1,5.8-0.1c1.8-0.2,3.7-0.4,5.4-1c2.6-0.9,3.2-3.2,1.4-5.3    c-0.9-1.1-2.1-2-3.2-2.9c-6.1-4.5-11.4-9.8-15.7-16.1c-1.2-1.7-2.4-3.3-4.2-4.5c-1.2-0.8-2.2-2.1-3.1-3.3    c-1.1-1.5-1.9-3.1-2.8-4.8c-1.5-2.7-2.9-5.3-5.4-7.2c-1.2-0.9-1.7-2.1-1.7-3.5c0-4.1-2.4-6.5-5.9-7.9c-4.6-1.9-9.6,0.8-10.1,5.6    c-0.1,0.8-0.3,1.6-0.5,2.3c-0.3,1.4-1,2.5-2.2,3.3c-2.1,1.4-3.5,3.5-4.7,5.7c-0.9,1.7-1.7,3.4-2.7,5.1c-0.8,1.2-1.6,2.5-2.7,3.3    c-4,2.9-6.9,6.6-9.6,10.6c-2.3,3.4-5.1,6.3-8.6,8.6c-1.9,1.2-3.6,2.7-5.2,4.2c-1.3,1.2-2.7,2.5-2,4.6c0.7,2,2.6,2.5,4.5,2.7    c2.9,0.3,5.9,0.4,8.8,0.5c3.5,0.1,6.8,1,9.7,3c1.7,1.1,3.3,2.3,5,3.4C204.5,395.1,210.3,397.1,217.7,397.1 M313.2,345.7    c8.9,0,16.4-0.8,23.7-3c10.7-3.2,19.7-9.1,27-17.5c3.2-3.7,5-8.2,5.8-13c0.8-4.9-1.7-7.3-6.6-6.6c-4.6,0.6-8.8,2.3-13,4.1    c-12.3,5.4-25.2,8-38.6,8.1c-7.3,0.1-14.6-0.5-21.5-3.1c-3.9-1.5-7.8-2.1-12-1.6c-3.1,0.4-5.8-0.4-8.3-2.4c-1-0.8-2.1-1.5-3.2-2    c-2.8-1.2-5.8-0.1-7.2,2.5c-1.5,2.9-0.7,6.1,2.1,7.7c1,0.6,2,0.9,3,1.5c4.8,2.8,8.9,6.2,10.1,12.1c0.4,2.1,1.7,3.4,3.5,4.2    c2.4,1.1,4.8,2.2,7.2,3.2C294.6,343.5,304.2,346,313.2,345.7 M120.8,345.7c1.3-0.1,3.7-0.1,6.1-0.3c7.1-0.6,13.8-2.7,20.4-5    c2.8-1,5.5-2.2,8.1-3.5c2.2-1.1,3.6-2.8,3.9-5.4c0.2-2.2,1.5-4,3-5.6c2-2.1,4.2-3.9,6.8-5.2c1.6-0.8,3.3-1.7,4.7-2.9    c2.1-1.7,2.4-4.7,1.1-7c-1.3-2.3-4.1-3.4-6.6-2.5c-1.1,0.4-2.3,0.9-3.2,1.6c-3.1,2.5-6.6,3.4-10.5,3c-3.5-0.4-6.8,0.2-10.1,1.2    c-1.5,0.5-3.1,0.9-4.6,1.4c-5,1.6-10.1,2.4-15.3,2.6c-13.9,0.4-27.1-2.6-39.8-8c-3.1-1.3-6.1-2.7-9.3-3.7c-2.2-0.7-4.7-1.1-7-1.1    c-2.7,0-4,1.5-4.3,4.2c-0.3,2.8,0,5.6,1.3,8.2c1.4,2.7,2.9,5.4,4.8,7.7c4.7,6,10.9,10.3,17.8,13.5    C97.9,343.6,108.6,345.6,120.8,345.7 M126.2,310.5c0.8,0,1.6,0,2.4,0c3.8,0,7.7-0.3,11.4-1.5c2.8-0.9,4.1-2.3,2.6-5.6    c-0.8-1.6-1.2-3.3-1-5.1c0.4-3.7-0.4-4.8-4.1-5.8c-0.4-0.1-0.8-0.2-1.2-0.3c-2.7-0.4-5.4-0.6-8.1-1.1c-6.5-1.4-12.9-2.9-19.3-4.6    c-20.4-5.7-39.1-14.4-54.4-29.4c-1.4-1.4-3.2-2.5-4.9-3.3c-3.6-1.7-6.4-0.3-7.7,3.4c-0.8,2.3-0.6,4.7-0.3,7.1    c0.8,4.7,2.9,8.8,5.4,12.7c7.4,11.2,17.6,18.8,29.8,24C92.6,307.7,109.2,310,126.2,310.5 M309.9,310.6c5.3-0.3,10.5-0.5,15.5-1.1    c5.6-0.6,11.1-1.4,16.4-3.3c3.8-1.3,7.5-2.8,11.3-4c11.8-4,21.5-11.1,29.7-20.3c4.5-5.1,7.9-10.9,8.8-17.8    c0.3-2.5,0.6-5.1-0.2-7.6c-0.9-2.8-2.9-3.9-5.7-3.3c-2.6,0.5-4.7,1.9-6.6,3.7c-1.4,1.4-2.8,2.9-4.3,4.2    c-9.6,8.3-20.3,14.8-32,19.5c-13.8,5.5-28.2,9.2-43,11.3c-2,0.3-3.9,0.9-5.8,1.5c-1.4,0.5-2.2,1.5-2.1,3.1    c0.2,2.8-0.1,5.5-1.3,8.2c-0.9,1.9,0,3.4,2,4.2c1,0.4,2.1,0.7,3.2,0.8C300.7,310,305.4,310.3,309.9,310.6 M250.9,358.7    c-0.7,3.1,0.7,5.2,2.7,6.9c6.5,5.3,13.8,8.9,22.1,10.3c5.2,0.9,10.3,0.6,15.5,0.1c9.2-0.9,17.8-3.8,25.5-9    c1.8-1.2,3.6-2.7,5.1-4.3c1-1,1.8-2.3,2.3-3.6c1.1-3-0.3-5.3-3.5-5.8c-2-0.3-4-0.3-6-0.2c-10.9,0.6-21.1-1.7-30.5-7.3    c-1.7-1-3.4-2.1-5.2-2.9c-1.6-0.7-3.2-1.4-5.1-1C270.7,353.7,262.3,358.3,250.9,358.7 M182.8,358.7c-1-0.1-1.8-0.2-2.5-0.2    c-4.1-0.2-7.9-1.4-11.3-3.5c-3.7-2.3-6.5-5.4-8.1-9.5c-0.3-0.9-0.6-1.8-0.8-2.7c-0.3-1-1-1.5-2-1.2c-1,0.2-2.1,0.4-3,0.9    c-1.9,0.9-3.7,1.9-5.4,3c-9.6,5.9-19.9,8.4-31.1,7.5c-1.9-0.2-3.8,0-5.7,0.3c-3.2,0.6-4.6,3.2-3.1,6.1c0.8,1.5,1.9,2.9,3.2,4.1    c3.7,3.4,7.9,6,12.4,8c6.1,2.7,12.6,4.2,19.2,4.7c5.6,0.4,11.2,0.5,16.7-1.1c5.7-1.7,11-4.3,16-7.4c1.3-0.8,2.5-2,3.6-3.1    C182.3,363.1,183,361.2,182.8,358.7"
   id="path1194"
   style="fill:#ffffff" />
		<path
   fill="#FFFFFF"
   d="M217.5,312.5c-14.7-0.7-27.1-6-36.2-18c-2.3-3-3.9-6.4-4.1-10.3c-0.1-2.5,0.4-4.8,1.5-6.9    c0.1-0.2,0.2-0.4,0.3-0.6c6.2-9.1,13.6-17.1,24.2-21.1c13.3-5.1,25.9-3.2,37.3,5.5c4.4,3.3,8.3,7.3,11.7,11.6    c1.3,1.7,2.4,3.6,3.3,5.5c1.8,3.8,1.7,7.7,0.1,11.6c-1.4,3.2-3.3,6-5.8,8.5c-7.6,7.5-16.5,12.5-27.2,14.1    C221,312.5,219.3,312.4,217.5,312.5 M216.3,259.6c-1.2,0.2-3.4,0.4-5.6,0.8c-6.1,1.2-11.5,4.1-15.8,8.4c-3.3,3.3-6.2,6.9-9.1,10.5    c-2.2,2.7-2.4,5.7-0.5,8.6c0.8,1.2,1.6,2.4,2.5,3.5c5.5,6.7,12.6,11,20.9,13.3c3.3,1,6.7,1.4,10.2,1.1c8.7-0.7,16.1-4.3,22.8-9.6    c3-2.3,5.4-5.2,7.4-8.4c1.5-2.5,1.6-4.8,0.1-7.4c-4.3-7.3-9.9-13.3-17.5-17.3C227.2,260.8,222.4,259.7,216.3,259.6"
   id="path1196"
   style="fill:#ffffff" />
		<path
   fill="#FFFFFF"
   d="M234.1,281.9c0,7.4-5.4,14.1-12.8,16c-11.4,2.9-21.7-5.5-21-17.2c0.2-4.2,1.9-7.7,5.2-10.4    c6.8-5.6,17.8-6.3,24.7,1.1C232.6,274,234.1,277.9,234.1,281.9 M217.2,272c-0.3,0-0.9,0-1.4,0.1c-5.1,0.5-8.8,3.9-9.3,8.7    c-0.4,3.7,1.1,8.9,6.7,10.7c3.8,1.3,7.4,0.7,10.8-1.4c2.1-1.3,3.5-3.3,4-5.7C229.2,277.7,224.5,272.1,217.2,272"
   id="path1198"
   style="fill:#ffffff" />
	</g>
</g>
</svg>
